# xmcd
#
# Track frame offsets:
#	150
#	20718
#	33565
#	45002
#	58549
#	75490
#	93743
#	107156
#	125667
#	143422
#
# Disc length: 2109 seconds
# Revision: 0
# Processed by: cddbd v1.5.2PL0 Copyright (c) Steve Scherf et al.
# Submitted via: dBpowerAMP V12.0
#
DISCID=7b083b0a
DTITLE=Maggie Rose - Cut To Impress
DYEAR=2013
DGENRE=Country
TTITLE0=Preacher's Daughter
TTITLE1=Mostly Bad
TTITLE2=Fall Madly In Love With You
TTITLE3=I Know Better Now
TTITLE4=Put Yourself In My Blues
TTITLE5=Better
TTITLE6=I Ain't Your Mama
TTITLE7=Looking Back Now
TTITLE8=Hollywood
TTITLE9=Goodbye Monday
EXTD=
EXTT0=
EXTT1=
EXTT2=
EXTT3=
EXTT4=
EXTT5=
EXTT6=
EXTT7=
EXTT8=
EXTT9=
PLAYORDER=
